<svg width="200" height="15" viewBox="0 0 200 15" fill="none" xmlns="http://www.w3.org/2000/svg">
<path d="M2.68 11.74L4.98 2.34C5.18 1.56 4.66 1.34 3.96 1.34H3.06C2.86 1.34 2.82 1.3 2.86 1.18L2.98 0.739999C3.02 0.619999 3.06 0.6 3.3 0.6C3.54 0.6 4.18 0.58 4.96 0.539999C5.8 0.52 6.72 0.479999 7.12 0.479999C9.66 0.479999 12.46 0.759999 14.14 2.42C15.38 3.68 15.64 4.82 15.64 6.04C15.64 9.96 13.16 11.94 11.94 12.64C9.42 14.06 6.72 14.06 5.4 14.06C4.86 14.06 3.04 14 2.48 14C0.98 14 0.4 14.06 0.24 14.06C0.1 14.06 0.06 14 0.08 13.9L0.2 13.46C0.22 13.38 0.26 13.32 0.4 13.32H1C1.72 13.32 2.36 13.06 2.68 11.74ZM6.92 1.28L4.34 11.88C4.26 12.24 4.2 12.52 4.2 12.72C4.2 13.14 4.76 13.32 5.62 13.32C7.76 13.32 9.86 12.92 11.34 11.66C12.56 10.64 13.78 8.4 13.78 6.1C13.78 4.8 13.24 3.54 12.5 2.78C11.84 2.1 11 1.7 10.22 1.48C9.14 1.2 8.32 1.22 8.04 1.22C7.72 1.22 7.12 1.22 6.92 1.28ZM18.8869 14.2C17.5869 14.2 17.0269 13.56 17.0269 12.24C17.0269 10.56 18.1269 8.46 19.5869 7.02C20.2269 6.38 21.3069 5.68 22.2669 5.68C23.0469 5.68 23.4069 6.26 23.4069 6.74C23.4069 7.72 22.6669 8.76 21.5469 9.34C20.4669 9.88 19.3869 10.1 18.6469 10.16C18.5469 10.4 18.3869 11.06 18.3869 12C18.3869 12.9 19.0469 13.26 19.4269 13.26C20.4069 13.26 21.2869 12.52 21.7069 11.84C21.7469 11.78 21.8069 11.74 21.8869 11.82L22.1069 12C22.2069 12.06 22.2069 12.12 22.1269 12.18C21.6269 12.88 20.4269 14.2 18.8869 14.2ZM21.4869 6.56C20.2069 6.56 18.9669 8.86 18.8069 9.58C19.5069 9.64 22.1269 8.8 22.1269 7.32C22.1269 6.92 21.9269 6.56 21.4869 6.56ZM25.8395 14.2C24.6795 14.2 23.9595 13.74 23.9595 13.08C23.9595 12.8 24.2195 12.42 24.6395 12.42C25.0795 12.42 25.3395 12.72 25.4595 13.06C25.5795 13.4 25.6795 13.62 26.1795 13.62C26.7595 13.62 27.2995 13.1 27.2995 12.4C27.2995 11.54 26.6995 10.72 26.4395 10.08C26.2995 9.74 25.8395 9.04 25.8595 8.12C25.8595 6.96 26.9595 5.68 28.3795 5.68C28.9795 5.68 29.7995 5.92 29.7995 6.7C29.7995 7.06 29.4795 7.34 29.1795 7.34C28.9395 7.34 28.6395 7.2 28.4995 6.86C28.3995 6.62 28.3795 6.3 27.9795 6.3C27.5795 6.3 26.9995 6.84 26.9995 7.56C26.9995 8.3 27.5995 9.14 27.7195 9.42C27.8395 9.66 28.4795 10.64 28.4795 11.7C28.4795 13.26 27.2195 14.2 25.8395 14.2ZM36.8878 14H36.0278C35.9078 14 35.8678 13.94 35.8878 13.9L40.4678 2.56C40.7078 1.96 40.7278 1.74 40.7278 1.58C40.7278 1.34 40.4478 1.18 40.0678 1.18H39.4478C39.3278 1.18 39.2278 1.12 39.2678 0.999999L39.3678 0.659999C39.4078 0.559999 39.4278 0.5 39.5878 0.5H42.2878C42.4478 0.5 42.5278 0.559999 42.5278 0.739999C42.5278 0.819999 42.4678 1.04 42.3478 1.34L39.2078 8.7L39.3078 8.78C40.3078 7.36 41.6278 5.68 43.2678 5.68C44.1878 5.68 44.6478 6.44 44.6478 7.36C44.6478 8.98 43.9678 10.7 43.2678 12C42.4678 13.5 41.3878 14.64 40.2678 14.64C39.6878 14.64 39.2478 14.22 39.2478 13.78C39.2478 13.32 39.5478 12.8 39.9678 12.8C40.3678 12.8 40.6278 13.12 40.6678 13.4C40.6878 13.58 40.7878 13.8 41.0078 13.8C41.4478 13.8 42.1078 12.5 42.4878 11.48C42.9278 10.34 43.2878 8.82 43.2878 7.86C43.2878 7.36 43.2478 6.74 42.6878 6.74C41.6278 6.74 39.8678 8.82 39.3278 9.5C38.8478 10.1 38.4078 10.86 38.0078 11.82L37.1678 13.86C37.1278 13.98 37.0278 14 36.8878 14ZM48.4438 14.2C47.3438 14.2 46.3838 13.14 46.3838 11.62C46.3838 9.1 48.2837 5.68 50.9438 5.68C52.2838 5.68 53.0838 6.66 53.0838 8.02C53.0838 10.22 51.3438 14.2 48.4438 14.2ZM48.1438 13.24C50.2238 13.24 52.2838 9.04 52.2838 7.72C52.3038 7.1 51.9438 6.6 51.2838 6.6C50.4438 6.6 49.3838 7.36 48.3838 8.98C47.7038 10.06 47.2238 11.28 47.2238 12.22C47.2238 12.86 47.6638 13.24 48.1438 13.24ZM52.6638 4.56L51.6038 3.24L49.6038 4.54C49.5638 4.56 49.5038 4.58 49.4638 4.52L49.3438 4.34C49.3038 4.3 49.3438 4.26 49.4038 4.2L51.9038 1.64C51.9838 1.58 52.0638 1.6 52.1038 1.72L53.0038 4.32C53.0438 4.38 53.0438 4.44 52.9838 4.48L52.8238 4.56C52.7638 4.6 52.7038 4.6 52.6638 4.56ZM54.953 12.78L57.473 6.96H56.073C55.953 6.96 55.913 6.92 55.953 6.8L56.113 6.36C56.153 6.26 56.213 6.22 56.333 6.22H57.773L58.813 3.9C58.913 3.7 58.973 3.66 59.133 3.6C59.353 3.54 59.873 3.34 60.033 3.26C60.153 3.2 60.253 3.14 60.333 3.14C60.453 3.14 60.493 3.26 60.353 3.54L59.033 6.22H61.073C61.173 6.22 61.213 6.28 61.153 6.44L60.973 6.86C60.953 6.92 60.873 6.96 60.793 6.96H58.753L56.813 11.46C56.573 12.02 56.353 12.52 56.353 12.74C56.353 12.96 56.433 13.08 56.613 13.08C57.193 13.08 58.493 11.94 58.613 11.8C58.673 11.72 58.733 11.74 58.793 11.8L59.013 12.04C59.073 12.1 59.073 12.14 59.033 12.22C58.773 12.54 56.913 14.2 55.373 14.2C54.873 14.2 54.733 14 54.733 13.72C54.733 13.42 54.833 13.08 54.953 12.78ZM63.2291 14.2C61.9291 14.2 61.3691 13.56 61.3691 12.24C61.3691 10.56 62.4691 8.46 63.9291 7.02C64.5691 6.38 65.6491 5.68 66.6091 5.68C67.3891 5.68 67.7491 6.26 67.7491 6.74C67.7491 7.72 67.0091 8.76 65.8891 9.34C64.8091 9.88 63.7291 10.1 62.9891 10.16C62.8891 10.4 62.7291 11.06 62.7291 12C62.7291 12.9 63.3891 13.26 63.7691 13.26C64.7491 13.26 65.6291 12.52 66.0491 11.84C66.0891 11.78 66.1491 11.74 66.2291 11.82L66.4491 12C66.5491 12.06 66.5491 12.12 66.4691 12.18C65.9691 12.88 64.7691 14.2 63.2291 14.2ZM65.8291 6.56C64.5491 6.56 63.3091 8.86 63.1491 9.58C63.8491 9.64 66.4691 8.8 66.4691 7.32C66.4691 6.92 66.2691 6.56 65.8291 6.56ZM69.4041 11.46L72.9041 2.44C73.2041 1.68 73.1841 1.18 72.6041 1.18H72.0241C71.8841 1.18 71.8641 1.1 71.9041 0.999999L72.0241 0.639999C72.0641 0.52 72.1041 0.5 72.2241 0.5H74.7041C74.8841 0.5 74.9441 0.619999 74.8841 0.799999L70.7241 11.38C70.5441 11.84 70.0641 12.94 70.4841 12.94C70.8041 12.94 71.7241 12.16 71.9641 11.9C72.0441 11.82 72.0841 11.84 72.1441 11.9L72.3641 12.14C72.4041 12.18 72.4241 12.26 72.3441 12.34C72.2441 12.5 70.3841 14.2 69.1041 14.2C68.8441 14.2 68.6641 14.08 68.6641 13.62C68.6641 13.32 69.1641 12.06 69.4041 11.46ZM75.7622 14.2C74.6022 14.2 73.8822 13.74 73.8822 13.08C73.8822 12.8 74.1422 12.42 74.5622 12.42C75.0022 12.42 75.2622 12.72 75.3822 13.06C75.5022 13.4 75.6022 13.62 76.1022 13.62C76.6822 13.62 77.2222 13.1 77.2222 12.4C77.2222 11.54 76.6222 10.72 76.3622 10.08C76.2222 9.74 75.7622 9.04 75.7822 8.12C75.7822 6.96 76.8822 5.68 78.3022 5.68C78.9022 5.68 79.7222 5.92 79.7222 6.7C79.7222 7.06 79.4022 7.34 79.1022 7.34C78.8622 7.34 78.5622 7.2 78.4222 6.86C78.3222 6.62 78.3022 6.3 77.9022 6.3C77.5022 6.3 76.9222 6.84 76.9222 7.56C76.9222 8.3 77.5222 9.14 77.6422 9.42C77.7622 9.66 78.4022 10.64 78.4022 11.7C78.4022 13.26 77.1422 14.2 75.7622 14.2ZM88.0705 14.2C86.7705 14.2 86.2105 13.56 86.2105 12.24C86.2105 10.56 87.3105 8.46 88.7705 7.02C89.4105 6.38 90.4905 5.68 91.4505 5.68C92.2305 5.68 92.5905 6.26 92.5905 6.74C92.5905 7.72 91.8505 8.76 90.7305 9.34C89.6505 9.88 88.5705 10.1 87.8305 10.16C87.7305 10.4 87.5705 11.06 87.5705 12C87.5705 12.9 88.2305 13.26 88.6105 13.26C89.5905 13.26 90.4705 12.52 90.8905 11.84C90.9305 11.78 90.9905 11.74 91.0705 11.82L91.2905 12C91.3905 12.06 91.3905 12.12 91.3105 12.18C90.8105 12.88 89.6105 14.2 88.0705 14.2ZM90.6705 6.56C89.3905 6.56 88.1505 8.86 87.9905 9.58C88.6905 9.64 91.3105 8.8 91.3105 7.32C91.3105 6.92 91.1105 6.56 90.6705 6.56ZM93.9631 12.78L96.4831 6.96H95.0831C94.9631 6.96 94.9231 6.92 94.9631 6.8L95.1231 6.36C95.1631 6.26 95.2231 6.22 95.3431 6.22H96.7831L97.8231 3.9C97.9231 3.7 97.9831 3.66 98.1431 3.6C98.3631 3.54 98.8831 3.34 99.0431 3.26C99.1631 3.2 99.2631 3.14 99.3431 3.14C99.4631 3.14 99.5031 3.26 99.3631 3.54L98.0431 6.22H100.083C100.183 6.22 100.223 6.28 100.163 6.44L99.9831 6.86C99.9631 6.92 99.8831 6.96 99.8031 6.96H97.7631L95.8231 11.46C95.5831 12.02 95.3631 12.52 95.3631 12.74C95.3631 12.96 95.4431 13.08 95.6231 13.08C96.2031 13.08 97.5031 11.94 97.6231 11.8C97.6831 11.72 97.7431 11.74 97.8031 11.8L98.0231 12.04C98.0831 12.1 98.0831 12.14 98.0431 12.22C97.7831 12.54 95.9231 14.2 94.3831 14.2C93.8831 14.2 93.7431 14 93.7431 13.72C93.7431 13.42 93.8431 13.08 93.9631 12.78ZM113.942 1.18H113.322C113.162 1.18 113.142 1.1 113.162 1.04L113.282 0.619999C113.302 0.539999 113.342 0.5 113.522 0.5H115.982C116.262 0.5 116.302 0.7 116.222 0.86C115.922 1.56 112.422 10.92 112.082 12.12C111.902 12.74 111.882 13.04 112.162 13.04C112.502 13.04 113.462 12.12 113.562 12C113.642 11.94 113.722 11.94 113.782 12.02L113.982 12.22C114.042 12.26 114.042 12.34 113.982 12.42C113.842 12.6 112.122 14.2 111.062 14.2C110.742 14.2 110.522 14.1 110.522 13.74C110.522 13.34 110.962 11.98 111.402 10.84L111.242 10.8C110.262 12.36 108.382 14.2 107.022 14.2C106.342 14.2 105.742 13.74 105.742 12.88C105.742 11.3 106.862 8.92 108.502 7.3C109.142 6.68 110.302 5.68 111.642 5.68C112.182 5.68 112.562 5.94 112.902 6.34L114.442 1.96C114.582 1.58 114.482 1.18 113.942 1.18ZM107.782 13.18C108.622 13.18 110.162 11.54 110.962 10.44C111.522 9.68 112.262 8.42 112.262 7.64C112.262 6.7 111.842 6.32 111.202 6.32C109.322 6.32 107.202 10.7 107.202 12.54C107.202 12.96 107.502 13.18 107.782 13.18ZM117.756 14.2C116.456 14.2 115.896 13.56 115.896 12.24C115.896 10.56 116.996 8.46 118.456 7.02C119.096 6.38 120.176 5.68 121.136 5.68C121.916 5.68 122.276 6.26 122.276 6.74C122.276 7.72 121.536 8.76 120.416 9.34C119.336 9.88 118.256 10.1 117.516 10.16C117.416 10.4 117.256 11.06 117.256 12C117.256 12.9 117.916 13.26 118.296 13.26C119.276 13.26 120.156 12.52 120.576 11.84C120.616 11.78 120.676 11.74 120.756 11.82L120.976 12C121.076 12.06 121.076 12.12 120.996 12.18C120.496 12.88 119.296 14.2 117.756 14.2ZM120.356 6.56C119.076 6.56 117.836 8.86 117.676 9.58C118.376 9.64 120.996 8.8 120.996 7.32C120.996 6.92 120.796 6.56 120.356 6.56ZM124.708 14.2C123.548 14.2 122.828 13.74 122.828 13.08C122.828 12.8 123.088 12.42 123.508 12.42C123.948 12.42 124.208 12.72 124.328 13.06C124.448 13.4 124.548 13.62 125.048 13.62C125.628 13.62 126.168 13.1 126.168 12.4C126.168 11.54 125.568 10.72 125.308 10.08C125.168 9.74 124.708 9.04 124.728 8.12C124.728 6.96 125.828 5.68 127.248 5.68C127.848 5.68 128.668 5.92 128.668 6.7C128.668 7.06 128.348 7.34 128.048 7.34C127.808 7.34 127.508 7.2 127.368 6.86C127.268 6.62 127.248 6.3 126.848 6.3C126.448 6.3 125.868 6.84 125.868 7.56C125.868 8.3 126.468 9.14 126.588 9.42C126.708 9.66 127.348 10.64 127.348 11.7C127.348 13.26 126.088 14.2 124.708 14.2ZM135.757 14H134.897C134.777 14 134.737 13.94 134.757 13.9L139.337 2.56C139.577 1.96 139.597 1.74 139.597 1.58C139.597 1.34 139.317 1.18 138.937 1.18H138.317C138.197 1.18 138.097 1.12 138.137 0.999999L138.237 0.659999C138.277 0.559999 138.297 0.5 138.457 0.5H141.157C141.317 0.5 141.397 0.559999 141.397 0.739999C141.397 0.819999 141.337 1.04 141.217 1.34L138.077 8.7L138.177 8.78C139.177 7.36 140.497 5.68 142.137 5.68C143.057 5.68 143.517 6.44 143.517 7.36C143.517 8.98 142.837 10.7 142.137 12C141.337 13.5 140.257 14.64 139.137 14.64C138.557 14.64 138.117 14.22 138.117 13.78C138.117 13.32 138.417 12.8 138.837 12.8C139.237 12.8 139.497 13.12 139.537 13.4C139.557 13.58 139.657 13.8 139.877 13.8C140.317 13.8 140.977 12.5 141.357 11.48C141.797 10.34 142.157 8.82 142.157 7.86C142.157 7.36 142.117 6.74 141.557 6.74C140.497 6.74 138.737 8.82 138.197 9.5C137.717 10.1 137.277 10.86 136.877 11.82L136.037 13.86C135.997 13.98 135.897 14 135.757 14ZM146.052 14.2C145.852 14.18 145.712 14.02 145.712 13.7C145.712 13.24 146.052 12.32 146.892 10.08L147.472 8.52C147.672 7.98 147.832 7.58 147.832 7.34C147.832 7.16 147.712 7.08 147.552 7.08C147.212 7.08 146.272 8.16 145.952 8.48C145.872 8.56 145.792 8.56 145.732 8.5L145.572 8.32C145.492 8.26 145.452 8.22 145.512 8.14C145.592 8.02 147.632 5.62 148.912 5.68C149.152 5.68 149.392 5.84 149.392 6.18C149.392 6.54 149.072 7.44 148.712 8.4L147.552 11.44C147.272 12.18 147.192 12.62 147.192 12.76C147.192 12.94 147.252 13.06 147.412 13.1C147.832 13.02 148.912 11.88 149.012 11.7C149.052 11.64 149.132 11.64 149.232 11.74L149.392 11.88C149.472 11.98 149.492 12.02 149.432 12.12C149.312 12.28 147.712 14.2 146.052 14.2ZM149.272 3C148.392 3 148.232 2.26 148.232 2.04C148.232 1.5 148.652 1.04 149.272 1.04C149.972 1.04 150.332 1.54 150.332 2C150.332 2.3 150.092 3 149.272 3ZM152.675 14.2C151.515 14.2 150.795 13.74 150.795 13.08C150.795 12.8 151.055 12.42 151.475 12.42C151.915 12.42 152.175 12.72 152.295 13.06C152.415 13.4 152.515 13.62 153.015 13.62C153.595 13.62 154.135 13.1 154.135 12.4C154.135 11.54 153.535 10.72 153.275 10.08C153.135 9.74 152.675 9.04 152.695 8.12C152.695 6.96 153.795 5.68 155.215 5.68C155.815 5.68 156.635 5.92 156.635 6.7C156.635 7.06 156.315 7.34 156.015 7.34C155.775 7.34 155.475 7.2 155.335 6.86C155.235 6.62 155.215 6.3 154.815 6.3C154.415 6.3 153.835 6.84 153.835 7.56C153.835 8.3 154.435 9.14 154.555 9.42C154.675 9.66 155.315 10.64 155.315 11.7C155.315 13.26 154.055 14.2 152.675 14.2ZM158.094 12.78L160.614 6.96H159.214C159.094 6.96 159.054 6.92 159.094 6.8L159.254 6.36C159.294 6.26 159.354 6.22 159.474 6.22H160.914L161.954 3.9C162.054 3.7 162.114 3.66 162.274 3.6C162.494 3.54 163.014 3.34 163.174 3.26C163.294 3.2 163.394 3.14 163.474 3.14C163.594 3.14 163.634 3.26 163.494 3.54L162.174 6.22H164.214C164.314 6.22 164.354 6.28 164.294 6.44L164.114 6.86C164.094 6.92 164.014 6.96 163.934 6.96H161.894L159.954 11.46C159.714 12.02 159.494 12.52 159.494 12.74C159.494 12.96 159.574 13.08 159.754 13.08C160.334 13.08 161.634 11.94 161.754 11.8C161.814 11.72 161.874 11.74 161.934 11.8L162.154 12.04C162.214 12.1 162.214 12.14 162.174 12.22C161.914 12.54 160.054 14.2 158.514 14.2C158.014 14.2 157.874 14 157.874 13.72C157.874 13.42 157.974 13.08 158.094 12.78ZM166.73 14.2C165.63 14.2 164.67 13.14 164.67 11.62C164.67 9.1 166.57 5.68 169.23 5.68C170.57 5.68 171.37 6.66 171.37 8.02C171.37 10.22 169.63 14.2 166.73 14.2ZM166.43 13.24C168.51 13.24 170.57 9.04 170.57 7.72C170.59 7.1 170.23 6.6 169.57 6.6C168.73 6.6 167.67 7.36 166.67 8.98C165.99 10.06 165.51 11.28 165.51 12.22C165.51 12.86 165.95 13.24 166.43 13.24ZM174.019 14.2C173.819 14.18 173.679 14.02 173.679 13.7C173.679 13.24 174.019 12.32 174.859 10.08L175.439 8.52C175.639 7.98 175.799 7.58 175.799 7.34C175.799 7.16 175.679 7.08 175.519 7.08C175.179 7.08 174.239 8.16 173.919 8.48C173.839 8.56 173.759 8.56 173.699 8.5L173.539 8.32C173.459 8.26 173.419 8.22 173.479 8.14C173.559 8.02 175.599 5.62 176.879 5.68C177.119 5.68 177.359 5.84 177.359 6.18C177.359 6.54 177.039 7.44 176.679 8.4L175.519 11.44C175.239 12.18 175.159 12.62 175.159 12.76C175.159 12.94 175.219 13.06 175.379 13.1C175.799 13.02 176.879 11.88 176.979 11.7C177.019 11.64 177.099 11.64 177.199 11.74L177.359 11.88C177.439 11.98 177.459 12.02 177.399 12.12C177.279 12.28 175.679 14.2 174.019 14.2ZM177.239 3C176.359 3 176.199 2.26 176.199 2.04C176.199 1.5 176.619 1.04 177.239 1.04C177.939 1.04 178.299 1.54 178.299 2C178.299 2.3 178.059 3 177.239 3ZM180.661 14H179.861C179.721 14 179.641 13.92 179.681 13.82L180.801 10.58C181.161 9.46 181.781 7.36 181.781 7.08C181.781 6.9 181.621 6.78 181.441 6.78C181.041 6.78 180.141 7.68 179.861 8.02C179.821 8.08 179.741 8.06 179.701 8.02L179.501 7.82C179.461 7.78 179.461 7.72 179.501 7.66C179.921 7.04 181.121 5.68 182.481 5.68C182.881 5.68 183.041 6.02 183.041 6.38C183.061 6.76 182.721 7.88 182.321 9.22L182.421 9.26C182.961 8.14 184.561 5.68 185.681 5.68C186.261 5.68 186.621 6.04 186.621 6.58C186.621 7.1 186.221 7.5 185.841 7.5C185.661 7.5 185.501 7.46 185.341 7.3C185.181 7.14 185.081 7.06 184.821 7.06C184.281 7.06 183.161 8.78 182.361 10.1C182.121 10.48 181.881 10.94 181.581 11.84L180.921 13.86C180.881 14 180.821 14 180.661 14ZM189.088 14.2C187.788 14.2 187.228 13.56 187.228 12.24C187.228 10.56 188.328 8.46 189.788 7.02C190.428 6.38 191.508 5.68 192.468 5.68C193.248 5.68 193.608 6.26 193.608 6.74C193.608 7.72 192.868 8.76 191.748 9.34C190.668 9.88 189.588 10.1 188.848 10.16C188.748 10.4 188.588 11.06 188.588 12C188.588 12.9 189.248 13.26 189.628 13.26C190.608 13.26 191.488 12.52 191.908 11.84C191.948 11.78 192.008 11.74 192.088 11.82L192.308 12C192.408 12.06 192.408 12.12 192.328 12.18C191.828 12.88 190.628 14.2 189.088 14.2ZM191.688 6.56C190.408 6.56 189.168 8.86 189.008 9.58C189.708 9.64 192.328 8.8 192.328 7.32C192.328 6.92 192.128 6.56 191.688 6.56ZM196.04 14.2C194.88 14.2 194.16 13.74 194.16 13.08C194.16 12.8 194.42 12.42 194.84 12.42C195.28 12.42 195.54 12.72 195.66 13.06C195.78 13.4 195.88 13.62 196.38 13.62C196.96 13.62 197.5 13.1 197.5 12.4C197.5 11.54 196.9 10.72 196.64 10.08C196.5 9.74 196.04 9.04 196.06 8.12C196.06 6.96 197.16 5.68 198.58 5.68C199.18 5.68 200 5.92 200 6.7C200 7.06 199.68 7.34 199.38 7.34C199.14 7.34 198.84 7.2 198.7 6.86C198.6 6.62 198.58 6.3 198.18 6.3C197.78 6.3 197.2 6.84 197.2 7.56C197.2 8.3 197.8 9.14 197.92 9.42C198.04 9.66 198.68 10.64 198.68 11.7C198.68 13.26 197.42 14.2 196.04 14.2Z" fill="black"/>
</svg>
