<?xml version="1.0" encoding="UTF-8"?>
<svg id="Calque_1" data-name="Calque 1" xmlns="http://www.w3.org/2000/svg" viewBox="0 0 501.91 48.58">
  <defs>
    <style>
      .cls-1 {
        fill: #000;
        stroke-width: 0px;
      }
    </style>
  </defs>
  <path class="cls-1" d="M42.72,28.38c-1.65,8.59-8.21,13.72-17.54,13.72-10.86,0-17.87-6.99-17.87-17.8S14.46,6.48,25.11,6.48c9.08,0,15.56,4.98,17.34,13.32l.08.4h7.44l-.1-.58C47.82,7.7,38.1,0,25.11,0,10.33,0,0,9.99,0,24.29s10.35,24.29,25.18,24.29c13.25,0,23.05-7.86,24.97-20.03l.09-.58h-7.44l-.08.41Z"/>
  <polygon class="cls-1" points="93.37 20.5 64.96 20.5 64.96 .82 57.79 .82 57.79 47.76 64.96 47.76 64.96 26.98 93.37 26.98 93.37 47.76 100.54 47.76 100.54 .82 93.37 .82 93.37 20.5"/>
  <path class="cls-1" d="M128.59.82l-22.84,46.93h7.7l6.79-14.26h25.28l6.79,14.26h7.7L137.17.82h-8.58ZM132.91,7.17l9.53,19.98h-19.12l9.53-19.98h.05Z"/>
  <path class="cls-1" d="M191.02.82h-25.8v46.93h7.17v-19.47h18.63c10,0,15.51-4.88,15.51-13.73s-5.51-13.73-15.51-13.73ZM191.36,21.8h-18.97V7.31h18.97c5.59,0,7.86,2.1,7.86,7.25s-2.28,7.25-7.86,7.25Z"/>
  <rect class="cls-1" x="214.03" y=".82" width="7.17" height="46.93"/>
  <polygon class="cls-1" points="228.15 7.31 244.2 7.31 244.2 47.76 251.37 47.76 251.37 7.31 267.41 7.31 267.41 .82 228.15 .82 228.15 7.31"/>
  <path class="cls-1" d="M308.68,24.32c5.58-1.32,8.64-5.24,8.64-11.07,0-7.55-5.39-12.43-13.73-12.43h-29.23v46.93h7.17v-20.64h17.87c5.5,0,6.69,1.4,7.67,5.92l3.31,14.72h7.48l-3.86-15.64c-1.12-4.48-2.14-6.64-5.33-7.8ZM281.53,7.31h21.92c4.66,0,6.56,1.94,6.56,6.7,0,4.46-2.42,6.63-7.38,6.63h-21.1V7.31Z"/>
  <polygon class="cls-1" points="332.4 26.78 361.67 26.78 361.67 20.29 332.4 20.29 332.4 7.31 362.36 7.31 362.36 .82 325.23 .82 325.23 47.76 362.63 47.76 362.63 41.27 332.4 41.27 332.4 26.78"/>
  <path class="cls-1" d="M418.37,22.36l-15.77-2.88c-5-.9-7-2.59-7.13-6.02,0-5.76,7.07-6.97,13.01-6.97,9.37,0,14.55,4.12,15.41,12.24l.05.45h7.3l-.05-.54c-1.05-11.84-9.33-18.62-22.71-18.62s-20.31,5.03-20.31,13.47c.21,6.69,4.64,10.85,13.16,12.34l15.77,2.88c5.18.97,7.2,2.72,7.2,6.23,0,4.9-4.26,7.18-13.42,7.18-10.43,0-15.79-4.24-16.85-13.34l-.05-.44h-7.38l.06.55c1.4,12.89,9.78,19.71,24.22,19.71,13.17,0,20.72-4.98,20.72-13.66,0-6.69-4.45-10.92-13.23-12.56Z"/>
  <rect class="cls-1" x="439.44" y=".82" width="7.17" height="46.93"/>
  <polygon class="cls-1" points="481.12 23.47 500.47 .82 491.4 .82 476.76 18.3 462.11 .82 453.05 .82 472.4 23.47 451.61 47.76 460.74 47.76 476.76 28.63 492.77 47.76 501.91 47.76 481.12 23.47"/>
</svg>