<?xml version="1.0" encoding="UTF-8"?>
<svg id="Calque_1" xmlns="http://www.w3.org/2000/svg" viewBox="0 0 304.41 330.62">
  <defs>
    <style>
      .cls-1 {
        fill: #fff;
      }
    </style>
  </defs>
  <path class="cls-1" d="M163.88.61c-2.06-1.01-4.51-.76-6.32.65L45,88.5l-37.62-8.9c-1.78-.42-3.66,0-5.1,1.13-1.44,1.14-2.28,2.87-2.28,4.71v159.45c0,1.86.86,3.62,2.34,4.75,1.06.82,2.35,1.25,3.66,1.25.51,0,1.02-.06,1.53-.2l37.52-9.87,112.49,88.51c1.08.85,2.39,1.28,3.71,1.28.89,0,1.79-.2,2.62-.6,2.07-1,3.38-3.1,3.38-5.4V6c0-2.29-1.3-4.38-3.36-5.39ZM12,93.02l28.41,6.72v129.9l-28.41,7.47V93.02ZM155.24,312.26l-102.83-80.91V97.94L155.24,18.24v294.02Z"/>
  <path class="cls-1" d="M304.21,159.54c-1.86-41.67-17.24-72.25-29.82-90.56-13.7-19.95-26.96-29.98-27.52-30.4-2.65-1.98-6.41-1.44-8.4,1.21-1.99,2.65-1.44,6.41,1.21,8.4.49.37,49.23,37.66,52.53,111.89,2.18,48.96-15.09,88.11-52.79,119.68-2.54,2.13-2.88,5.91-.75,8.45,1.19,1.42,2.89,2.15,4.6,2.15,1.36,0,2.73-.46,3.85-1.4,22.54-18.88,38.62-40.93,47.8-65.54,7.29-19.55,10.32-40.45,9.28-63.87Z"/>
  <path class="cls-1" d="M252.91,166.31c1.26-57.62-42.52-84.87-44.38-86-2.83-1.72-6.51-.82-8.23,2.01-1.72,2.82-.83,6.51,1.99,8.24,1.62,1,39.73,24.96,38.62,75.49-.44,20.4-5.26,47.19-38.81,73.57-2.61,2.05-3.06,5.82-1.01,8.42,1.18,1.51,2.94,2.29,4.72,2.29,1.3,0,2.6-.42,3.7-1.28,16.48-12.96,27.93-26.92,34.98-42.68,5.41-12.09,8.08-24.81,8.41-40.06Z"/>
</svg>