<?xml version="1.0" encoding="UTF-8"?>
<svg id="Calque_1" xmlns="http://www.w3.org/2000/svg" viewBox="0 0 301.69 330.62">
  <defs>
    <style>
      .cls-1 {
        fill: #fff;
      }
    </style>
  </defs>
  <path class="cls-1" d="M251.72,165.31l48.81-66.5c1.96-2.67,1.38-6.43-1.29-8.39-2.67-1.96-6.43-1.38-8.39,1.29l-46.58,63.46-46.58-63.46c-1.96-2.67-5.71-3.25-8.39-1.29-2.67,1.96-3.25,5.72-1.29,8.39l48.81,66.5-48.81,66.5c-1.96,2.67-1.38,6.43,1.29,8.39,1.07.79,2.31,1.16,3.55,1.16,1.85,0,3.67-.85,4.84-2.45l46.58-63.46,46.58,63.46c1.18,1.6,3,2.45,4.84,2.45,1.23,0,2.48-.38,3.55-1.16,2.67-1.96,3.25-5.72,1.29-8.39l-48.81-66.5Z"/>
  <path class="cls-1" d="M163.88.61c-2.06-1.01-4.51-.76-6.32.65L45,88.5l-37.62-8.9c-1.78-.42-3.66,0-5.1,1.13-1.44,1.14-2.28,2.87-2.28,4.71v159.45c0,1.86.86,3.62,2.34,4.75,1.06.82,2.35,1.25,3.66,1.25.51,0,1.02-.06,1.53-.2l37.52-9.87,112.49,88.51c1.08.85,2.39,1.28,3.71,1.28.89,0,1.79-.2,2.62-.6,2.07-1,3.38-3.1,3.38-5.4V6c0-2.29-1.3-4.38-3.36-5.39ZM12,93.02l28.41,6.72v129.9l-28.41,7.47V93.02ZM155.24,312.26l-102.83-80.91V97.94L155.24,18.24v294.02Z"/>
</svg>